STARTFONT 2.1
COMMENT Created by fdbbdf
FONT helvetica10bi
SIZE 10 78 78
FONTBOUNDINGBOX 15 12 -2 -4
STARTPROPERTIES 4
Ownership "  Copyright (c) 1984 Adobe Systems, Inc.  /adobe/fonttools/stdfontvec.ps HM12.bits  TOTAL BITMAP BYTES 1150  TOTAL BITMAP BYTES 1150  GUIDELINES -3 0 7 9 DONE  WIDTHERR -297 -207  "
FONT_ASCENT 8
FONT_DESCENT 4
DEFAULT_CHAR 32
ENDPROPERTIES
CHARS 95
STARTCHAR sp
ENCODING -1 32
SWIDTH 0 0
DWIDTH 3 0
BBX 0 0 0 0
BITMAP
ENDCHAR
STARTCHAR !
ENCODING -1 33
SWIDTH 0 0
DWIDTH 4 0
BBX 5 9 1 -1
BITMAP
1800
1800
3000
3000
6000
6000
0000
c000
c000
ENDCHAR
STARTCHAR "
ENCODING -1 34
SWIDTH 0 0
DWIDTH 6 0
BBX 7 3 2 5
BITMAP
3600
6c00
d800
ENDCHAR
STARTCHAR #
ENCODING -1 35
SWIDTH 0 0
DWIDTH 7 0
BBX 7 8 1 -1
BITMAP
1400
1400
7e00
2800
2800
fc00
5000
5000
ENDCHAR
STARTCHAR $
ENCODING -1 36
SWIDTH 0 0
DWIDTH 7 0
BBX 7 10 1 -2
BITMAP
0400
3c00
6e00
6a00
3000
1800
ac00
ec00
7800
4000
ENDCHAR
STARTCHAR %
ENCODING -1 37
SWIDTH 0 0
DWIDTH 13 0
BBX 11 8 2 -1
BITMAP
70c0
d980
db00
7600
0dc0
1b60
3360
61c0
ENDCHAR
STARTCHAR &
ENCODING -1 38
SWIDTH 0 0
DWIDTH 9 0
BBX 8 9 1 -1
BITMAP
1c00
3600
3600
1c00
3900
6f00
c600
cf00
7900
ENDCHAR
STARTCHAR '
ENCODING -1 39
SWIDTH 0 0
DWIDTH 4 0
BBX 3 3 3 5
BITMAP
6000
6000
c000
ENDCHAR
STARTCHAR (
ENCODING -1 40
SWIDTH 0 0
DWIDTH 5 0
BBX 6 12 0 -4
BITMAP
0c00
1800
3000
3000
6000
6000
c000
c000
c000
6000
6000
3000
ENDCHAR
STARTCHAR )
ENCODING -1 41
SWIDTH 0 0
DWIDTH 5 0
BBX 6 12 0 -4
BITMAP
3000
1800
1800
0c00
0c00
0c00
1800
1800
3000
3000
6000
c000
ENDCHAR
STARTCHAR *
ENCODING -1 42
SWIDTH 0 0
DWIDTH 6 0
BBX 4 4 3 4
BITMAP
2000
f000
6000
a000
ENDCHAR
STARTCHAR +
ENCODING -1 43
SWIDTH 0 0
DWIDTH 8 0
BBX 7 5 1 0
BITMAP
1800
1800
7e00
1800
1800
ENDCHAR
STARTCHAR ,
ENCODING -1 44
SWIDTH 0 0
DWIDTH 3 0
BBX 2 4 0 -3
BITMAP
c000
c000
4000
8000
ENDCHAR
STARTCHAR -
ENCODING -1 45
SWIDTH 0 0
DWIDTH 5 0
BBX 4 1 1 2
BITMAP
f000
ENDCHAR
STARTCHAR .
ENCODING -1 46
SWIDTH 0 0
DWIDTH 3 0
BBX 2 2 1 -1
BITMAP
c000
c000
ENDCHAR
STARTCHAR /
ENCODING -1 47
SWIDTH 0 0
DWIDTH 5 0
BBX 7 9 0 -1
BITMAP
0200
0600
0c00
1800
1000
3000
6000
c000
8000
ENDCHAR
STARTCHAR 0
ENCODING -1 48
SWIDTH 0 0
DWIDTH 7 0
BBX 7 8 1 -1
BITMAP
1c00
3600
6600
6600
cc00
cc00
d800
7000
ENDCHAR
STARTCHAR 1
ENCODING -1 49
SWIDTH 0 0
DWIDTH 6 0
BBX 5 8 2 -1
BITMAP
1800
7800
3000
3000
6000
6000
c000
c000
ENDCHAR
STARTCHAR 2
ENCODING -1 50
SWIDTH 0 0
DWIDTH 7 0
BBX 7 8 1 -1
BITMAP
3c00
6600
0600
0c00
1800
3000
6000
fc00
ENDCHAR
STARTCHAR 3
ENCODING -1 51
SWIDTH 0 0
DWIDTH 7 0
BBX 7 8 1 -1
BITMAP
3c00
6600
0600
3c00
0c00
0c00
d800
7000
ENDCHAR
STARTCHAR 4
ENCODING -1 52
SWIDTH 0 0
DWIDTH 8 0
BBX 7 8 1 -1
BITMAP
0600
1e00
3600
6c00
cc00
fe00
1800
1800
ENDCHAR
STARTCHAR 5
ENCODING -1 53
SWIDTH 0 0
DWIDTH 7 0
BBX 7 8 1 -1
BITMAP
1e00
3000
6000
7800
0c00
0c00
d800
7000
ENDCHAR
STARTCHAR 6
ENCODING -1 54
SWIDTH 0 0
DWIDTH 7 0
BBX 7 8 1 -1
BITMAP
1c00
3600
6000
7800
cc00
cc00
d800
7000
ENDCHAR
STARTCHAR 7
ENCODING -1 55
SWIDTH 0 0
DWIDTH 7 0
BBX 7 8 1 -1
BITMAP
7e00
0600
0c00
1800
3000
3000
6000
6000
ENDCHAR
STARTCHAR 8
ENCODING -1 56
SWIDTH 0 0
DWIDTH 7 0
BBX 7 8 1 -1
BITMAP
1c00
3600
6600
3c00
6c00
cc00
d800
7000
ENDCHAR
STARTCHAR 9
ENCODING -1 57
SWIDTH 0 0
DWIDTH 7 0
BBX 7 8 1 -1
BITMAP
1c00
3600
6600
6600
3c00
0c00
d800
7000
ENDCHAR
STARTCHAR :
ENCODING -1 58
SWIDTH 0 0
DWIDTH 4 0
BBX 4 7 1 -1
BITMAP
3000
3000
0000
0000
0000
c000
c000
ENDCHAR
STARTCHAR ;
ENCODING -1 59
SWIDTH 0 0
DWIDTH 4 0
BBX 4 9 1 -3
BITMAP
3000
3000
0000
0000
0000
c000
c000
4000
8000
ENDCHAR
STARTCHAR <
ENCODING -1 60
SWIDTH 0 0
DWIDTH 7 0
BBX 6 5 2 0
BITMAP
1c00
7000
c000
6000
3000
ENDCHAR
STARTCHAR =
ENCODING -1 61
SWIDTH 0 0
DWIDTH 7 0
BBX 6 3 1 1
BITMAP
7c00
0000
7c00
ENDCHAR
STARTCHAR >
ENCODING -1 62
SWIDTH 0 0
DWIDTH 7 0
BBX 6 5 1 0
BITMAP
3000
1800
0c00
3800
e000
ENDCHAR
STARTCHAR ?
ENCODING -1 63
SWIDTH 0 0
DWIDTH 8 0
BBX 6 9 3 -1
BITMAP
7800
cc00
8c00
1800
3000
6000
0000
c000
c000
ENDCHAR
STARTCHAR @
ENCODING -1 64
SWIDTH 0 0
DWIDTH 12 0
BBX 11 10 1 -2
BITMAP
0f00
39c0
6060
cf20
9920
9120
9b60
cdc0
6000
3e00
ENDCHAR
STARTCHAR A
ENCODING -1 65
SWIDTH 0 0
DWIDTH 9 0
BBX 8 9 0 -1
BITMAP
0300
0700
0f00
1b00
3300
3f00
6300
c300
c300
ENDCHAR
STARTCHAR B
ENCODING -1 66
SWIDTH 0 0
DWIDTH 10 0
BBX 9 9 1 -1
BITMAP
1f00
1980
3180
3300
7e00
6300
6300
c600
fc00
ENDCHAR
STARTCHAR C
ENCODING -1 67
SWIDTH 0 0
DWIDTH 10 0
BBX 9 9 1 -1
BITMAP
0f00
1980
3180
6000
6000
c000
c300
c600
7c00
ENDCHAR
STARTCHAR D
ENCODING -1 68
SWIDTH 0 0
DWIDTH 10 0
BBX 9 9 1 -1
BITMAP
1f00
1980
3180
3180
6180
6300
6300
c600
fc00
ENDCHAR
STARTCHAR E
ENCODING -1 69
SWIDTH 0 0
DWIDTH 8 0
BBX 9 9 1 -1
BITMAP
1f80
1800
3000
3000
7e00
6000
6000
c000
fc00
ENDCHAR
STARTCHAR F
ENCODING -1 70
SWIDTH 0 0
DWIDTH 8 0
BBX 9 9 1 -1
BITMAP
1f80
1800
3000
3000
7e00
6000
6000
c000
c000
ENDCHAR
STARTCHAR G
ENCODING -1 71
SWIDTH 0 0
DWIDTH 10 0
BBX 9 9 1 -1
BITMAP
0f00
1980
3180
6000
6700
c300
c600
c600
7c00
ENDCHAR
STARTCHAR H
ENCODING -1 72
SWIDTH 0 0
DWIDTH 10 0
BBX 10 9 1 -1
BITMAP
18c0
18c0
3180
3180
7f00
6300
6300
c600
c600
ENDCHAR
STARTCHAR I
ENCODING -1 73
SWIDTH 0 0
DWIDTH 5 0
BBX 5 9 1 -1
BITMAP
1800
1800
3000
3000
6000
6000
6000
c000
c000
ENDCHAR
STARTCHAR J
ENCODING -1 74
SWIDTH 0 0
DWIDTH 8 0
BBX 9 9 0 -1
BITMAP
0180
0180
0300
0300
0600
0600
c600
cc00
7800
ENDCHAR
STARTCHAR K
ENCODING -1 75
SWIDTH 0 0
DWIDTH 10 0
BBX 10 9 1 -1
BITMAP
18c0
1980
3300
3600
3c00
6600
6600
c300
c300
ENDCHAR
STARTCHAR L
ENCODING -1 76
SWIDTH 0 0
DWIDTH 8 0
BBX 6 9 1 -1
BITMAP
1800
1800
3000
3000
6000
6000
6000
c000
fc00
ENDCHAR
STARTCHAR M
ENCODING -1 77
SWIDTH 0 0
DWIDTH 13 0
BBX 12 9 1 -1
BITMAP
1830
1870
38f0
39b0
6960
6b60
6e60
ccc0
c8c0
ENDCHAR
STARTCHAR N
ENCODING -1 78
SWIDTH 0 0
DWIDTH 10 0
BBX 10 9 1 -1
BITMAP
18c0
18c0
3980
2980
6d80
6500
6700
c600
c600
ENDCHAR
STARTCHAR O
ENCODING -1 79
SWIDTH 0 0
DWIDTH 10 0
BBX 9 9 1 -1
BITMAP
0f00
1980
3180
6180
6300
c300
c600
cc00
7800
ENDCHAR
STARTCHAR P
ENCODING -1 80
SWIDTH 0 0
DWIDTH 9 0
BBX 9 9 1 -1
BITMAP
1f00
1980
3180
3300
7e00
6000
6000
c000
c000
ENDCHAR
STARTCHAR Q
ENCODING -1 81
SWIDTH 0 0
DWIDTH 10 0
BBX 9 9 1 -1
BITMAP
0f00
1980
3180
6180
6300
cb00
ce00
c600
7b00
ENDCHAR
STARTCHAR R
ENCODING -1 82
SWIDTH 0 0
DWIDTH 10 0
BBX 9 9 1 -1
BITMAP
1f00
1980
3180
3300
7e00
6300
6300
c600
c600
ENDCHAR
STARTCHAR S
ENCODING -1 83
SWIDTH 0 0
DWIDTH 9 0
BBX 8 9 1 -1
BITMAP
1e00
3300
6300
7000
3c00
0e00
c600
cc00
7800
ENDCHAR
STARTCHAR T
ENCODING -1 84
SWIDTH 0 0
DWIDTH 7 0
BBX 8 9 2 -1
BITMAP
ff00
1800
3000
3000
6000
6000
6000
c000
c000
ENDCHAR
STARTCHAR U
ENCODING -1 85
SWIDTH 0 0
DWIDTH 9 0
BBX 9 9 1 -1
BITMAP
3180
3180
6300
6300
6300
c600
c600
cc00
7800
ENDCHAR
STARTCHAR V
ENCODING -1 86
SWIDTH 0 0
DWIDTH 8 0
BBX 8 9 1 -1
BITMAP
c300
c300
c600
cc00
cc00
d800
f000
e000
c000
ENDCHAR
STARTCHAR W
ENCODING -1 87
SWIDTH 0 0
DWIDTH 11 0
BBX 10 9 2 -1
BITMAP
ccc0
ccc0
cd80
dd80
dd00
ef00
ee00
cc00
cc00
ENDCHAR
STARTCHAR X
ENCODING -1 88
SWIDTH 0 0
DWIDTH 10 0
BBX 10 9 1 -1
BITMAP
30c0
3180
1b00
1e00
0c00
1e00
3600
6300
c300
ENDCHAR
STARTCHAR Y
ENCODING -1 89
SWIDTH 0 0
DWIDTH 9 0
BBX 8 9 2 -1
BITMAP
6300
6300
6600
3600
3c00
1800
1800
3000
3000
ENDCHAR
STARTCHAR Z
ENCODING -1 90
SWIDTH 0 0
DWIDTH 8 0
BBX 9 9 0 -1
BITMAP
3f80
0300
0600
0c00
1800
3000
6000
c000
fe00
ENDCHAR
STARTCHAR [
ENCODING -1 91
SWIDTH 0 0
DWIDTH 4 0
BBX 8 12 -1 -4
BITMAP
0f00
0c00
1800
1800
3000
3000
3000
6000
6000
6000
c000
f000
ENDCHAR
STARTCHAR \
ENCODING -1 92
SWIDTH 0 0
DWIDTH 5 0
BBX 3 9 2 -1
BITMAP
c000
c000
c000
c000
6000
6000
6000
6000
6000
ENDCHAR
STARTCHAR ]
ENCODING -1 93
SWIDTH 0 0
DWIDTH 4 0
BBX 8 12 -2 -4
BITMAP
0f00
0300
0600
0600
0c00
0c00
0c00
1800
1800
1800
3000
f000
ENDCHAR
STARTCHAR ^
ENCODING -1 94
SWIDTH 0 0
DWIDTH 6 0
BBX 6 6 1 2
BITMAP
1800
3800
6c00
6c00
cc00
cc00
ENDCHAR
STARTCHAR _
ENCODING -1 95
SWIDTH 0 0
DWIDTH 7 0
BBX 7 1 -1 -4
BITMAP
fe00
ENDCHAR
STARTCHAR `
ENCODING -1 96
SWIDTH 0 0
DWIDTH 4 0
BBX 3 3 3 5
BITMAP
6000
c000
c000
ENDCHAR
STARTCHAR a
ENCODING -1 97
SWIDTH 0 0
DWIDTH 8 0
BBX 8 7 0 -1
BITMAP
1e00
3300
0300
7e00
c600
cc00
7600
ENDCHAR
STARTCHAR b
ENCODING -1 98
SWIDTH 0 0
DWIDTH 8 0
BBX 8 9 0 -1
BITMAP
1800
1800
3600
3b00
6300
6600
c600
cc00
f800
ENDCHAR
STARTCHAR c
ENCODING -1 99
SWIDTH 0 0
DWIDTH 7 0
BBX 8 7 0 -1
BITMAP
1e00
3300
6000
6000
c000
cc00
7800
ENDCHAR
STARTCHAR d
ENCODING -1 100
SWIDTH 0 0
DWIDTH 8 0
BBX 9 9 0 -1
BITMAP
0180
0180
1b00
3700
6300
6600
c600
cc00
7c00
ENDCHAR
STARTCHAR e
ENCODING -1 101
SWIDTH 0 0
DWIDTH 8 0
BBX 8 7 0 -1
BITMAP
1e00
3300
6300
7e00
c000
cc00
7800
ENDCHAR
STARTCHAR f
ENCODING -1 102
SWIDTH 0 0
DWIDTH 7 0
BBX 7 9 1 -1
BITMAP
0e00
1800
7e00
3000
3000
6000
6000
c000
c000
ENDCHAR
STARTCHAR g
ENCODING -1 103
SWIDTH 0 0
DWIDTH 8 0
BBX 8 10 0 -4
BITMAP
1f00
3300
6300
6600
c600
cc00
7c00
0c00
9800
f000
ENDCHAR
STARTCHAR h
ENCODING -1 104
SWIDTH 0 0
DWIDTH 8 0
BBX 8 9 0 -1
BITMAP
1800
1800
3600
3b00
7300
6600
6600
cc00
cc00
ENDCHAR
STARTCHAR i
ENCODING -1 105
SWIDTH 0 0
DWIDTH 4 0
BBX 5 9 0 -1
BITMAP
1800
0000
3000
3000
6000
6000
6000
c000
c000
ENDCHAR
STARTCHAR j
ENCODING -1 106
SWIDTH 0 0
DWIDTH 4 0
BBX 7 12 -2 -4
BITMAP
0600
0000
0c00
0c00
1800
1800
1800
3000
3000
3000
6000
c000
ENDCHAR
STARTCHAR k
ENCODING -1 107
SWIDTH 0 0
DWIDTH 8 0
BBX 8 9 0 -1
BITMAP
1800
1800
3300
3600
7c00
7800
6c00
cc00
c600
ENDCHAR
STARTCHAR l
ENCODING -1 108
SWIDTH 0 0
DWIDTH 5 0
BBX 5 9 0 -1
BITMAP
1800
1800
3000
3000
6000
6000
6000
c000
c000
ENDCHAR
STARTCHAR m
ENCODING -1 109
SWIDTH 0 0
DWIDTH 12 0
BBX 12 7 0 -1
BITMAP
36e0
3b30
3330
6660
6660
ccc0
ccc0
ENDCHAR
STARTCHAR n
ENCODING -1 110
SWIDTH 0 0
DWIDTH 8 0
BBX 8 7 0 -1
BITMAP
3600
3b00
7300
6600
6600
cc00
cc00
ENDCHAR
STARTCHAR o
ENCODING -1 111
SWIDTH 0 0
DWIDTH 8 0
BBX 8 7 0 -1
BITMAP
1e00
3300
6300
6600
c600
cc00
7800
ENDCHAR
STARTCHAR p
ENCODING -1 112
SWIDTH 0 0
DWIDTH 8 0
BBX 9 10 -1 -4
BITMAP
1f00
1980
3180
3300
6300
6600
7c00
e000
c000
c000
ENDCHAR
STARTCHAR q
ENCODING -1 113
SWIDTH 0 0
DWIDTH 8 0
BBX 8 10 0 -4
BITMAP
1f00
3300
6300
6600
c600
cc00
7c00
0c00
1800
1800
ENDCHAR
STARTCHAR r
ENCODING -1 114
SWIDTH 0 0
DWIDTH 6 0
BBX 7 7 0 -1
BITMAP
3600
3c00
7000
6000
6000
c000
c000
ENDCHAR
STARTCHAR s
ENCODING -1 115
SWIDTH 0 0
DWIDTH 7 0
BBX 8 7 0 -1
BITMAP
1e00
3300
3000
1800
0c00
cc00
7800
ENDCHAR
STARTCHAR t
ENCODING -1 116
SWIDTH 0 0
DWIDTH 5 0
BBX 6 9 0 -1
BITMAP
1800
1800
7c00
3000
3000
6000
6000
c000
e000
ENDCHAR
STARTCHAR u
ENCODING -1 117
SWIDTH 0 0
DWIDTH 8 0
BBX 8 7 0 -1
BITMAP
3300
3300
6300
6600
c600
cc00
7400
ENDCHAR
STARTCHAR v
ENCODING -1 118
SWIDTH 0 0
DWIDTH 8 0
BBX 6 7 2 -1
BITMAP
cc00
cc00
d800
d800
f000
e000
c000
ENDCHAR
STARTCHAR w
ENCODING -1 119
SWIDTH 0 0
DWIDTH 10 0
BBX 10 7 1 -1
BITMAP
ccc0
ccc0
dd80
dd80
f700
e600
c600
ENDCHAR
STARTCHAR x
ENCODING -1 120
SWIDTH 0 0
DWIDTH 7 0
BBX 8 7 0 -1
BITMAP
3300
3600
1c00
1800
3800
6c00
cc00
ENDCHAR
STARTCHAR y
ENCODING -1 121
SWIDTH 0 0
DWIDTH 7 0
BBX 8 10 -1 -4
BITMAP
3300
3300
3600
3600
3400
1c00
1800
1800
3000
6000
ENDCHAR
STARTCHAR z
ENCODING -1 122
SWIDTH 0 0
DWIDTH 7 0
BBX 7 7 0 -1
BITMAP
3e00
0600
0c00
1800
3000
6000
7c00
ENDCHAR
STARTCHAR {
ENCODING -1 123
SWIDTH 0 0
DWIDTH 6 0
BBX 7 12 1 -4
BITMAP
0e00
1800
3000
6000
6000
6000
c000
6000
6000
c000
c000
7000
ENDCHAR
STARTCHAR |
ENCODING -1 124
SWIDTH 0 0
DWIDTH 4 0
BBX 6 12 0 -4
BITMAP
0c00
0c00
1800
1800
3000
3000
3000
6000
6000
6000
c000
c000
ENDCHAR
STARTCHAR }
ENCODING -1 125
SWIDTH 0 0
DWIDTH 5 0
BBX 7 12 -1 -4
BITMAP
1c00
0600
0600
0c00
0c00
0600
0c00
0c00
0c00
1800
3000
e000
ENDCHAR
STARTCHAR ~
ENCODING -1 126
SWIDTH 0 0
DWIDTH 7 0
BBX 7 2 1 2
BITMAP
7600
dc00
ENDCHAR
ENDFONT
